/* XPM */
static char * omron++_32_xpm[] = {
"32 32 320 2",
"  	c #000000",
". 	c #070605",
"+ 	c #1F1512",
"@ 	c #2C1A18",
"# 	c #361F1F",
"$ 	c #452629",
"% 	c #4C272E",
"& 	c #4F2730",
"* 	c #512730",
"= 	c #532730",
"- 	c #542730",
"; 	c #552730",
"> 	c #522730",
", 	c #4D272F",
"' 	c #46262A",
") 	c #382020",
"! 	c #2D1A18",
"~ 	c #211613",
"{ 	c #080706",
"] 	c #241815",
"^ 	c #301C1A",
"/ 	c #402426",
"( 	c #572831",
"_ 	c #5E2D34",
": 	c #633136",
"< 	c #673537",
"[ 	c #6A3638",
"} 	c #683537",
"| 	c #5F2D34",
"1 	c #422527",
"2 	c #311C1B",
"3 	c #261816",
"4 	c #0B0907",
"5 	c #251815",
"6 	c #321D1B",
"7 	c #552830",
"8 	c #602E35",
"9 	c #693638",
"0 	c #713B38",
"a 	c #773E38",
"b 	c #7B4138",
"c 	c #7E4238",
"d 	c #773F38",
"e 	c #723B38",
"f 	c #6A3738",
"g 	c #612F35",
"h 	c #562831",
"i 	c #47262B",
"j 	c #331E1C",
"k 	c #271816",
"l 	c #090806",
"m 	c #030202",
"n 	c #201513",
"o 	c #502730",
"p 	c #592931",
"q 	c #663437",
"r 	c #834638",
"s 	c #8A4A38",
"t 	c #8E4C38",
"u 	c #914D38",
"v 	c #924D38",
"w 	c #8B4A38",
"x 	c #844638",
"y 	c #7D4238",
"z 	c #733C38",
"A 	c #673437",
"B 	c #5B2A32",
"C 	c #48262B",
"D 	c #221714",
"E 	c #050403",
"F 	c #140F0D",
"G 	c #412427",
"H 	c #592932",
"I 	c #683538",
"J 	c #763E38",
"K 	c #824538",
"L 	c #8D4B38",
"M 	c #964E38",
"N 	c #9E5038",
"O 	c #A25238",
"P 	c #A45337",
"Q 	c #A55337",
"R 	c #974E38",
"S 	c #442528",
"T 	c #2E1B19",
"U 	c #18120F",
"V 	c #060504",
"W 	c #854638",
"X 	c #A85437",
"Y 	c #B05938",
"Z 	c #B65D38",
"` 	c #B85F38",
" .	c #B05A38",
"..	c #A95537",
"+.	c #9F5038",
"@.	c #934D38",
"#.	c #864738",
"$.	c #783F38",
"%.	c #582931",
"&.	c #4E272F",
"*.	c #3A2122",
"=.	c #291916",
"-.	c #2E1A19",
";.	c #47262A",
">.	c #A15138",
",.	c #AE5838",
"'.	c #B95F38",
").	c #C1613C",
"!.	c #C8613F",
"~.	c #CC6140",
"{.	c #C9613F",
"].	c #C2613C",
"^.	c #BA5F39",
"/.	c #AF5938",
"(.	c #A25237",
"_.	c #934E38",
":.	c #743D38",
"<.	c #49272C",
"[.	c #2F1B1A",
"}.	c #19120F",
"|.	c #020202",
"1.	c #231714",
"2.	c #351F1E",
"3.	c #7C4138",
"4.	c #8E4B38",
"5.	c #BC6039",
"6.	c #D06240",
"7.	c #D16740",
"8.	c #D16C40",
"9.	c #D16D40",
"0.	c #D16840",
"a.	c #CA613F",
"b.	c #BD603A",
"c.	c #A05138",
"d.	c #8F4C38",
"e.	c #7E4338",
"f.	c #6C3838",
"g.	c #5A2A32",
"h.	c #040403",
"i.	c #2A1917",
"j.	c #3F2325",
"k.	c #5F2E34",
"l.	c #723C38",
"m.	c #D16340",
"n.	c #D17541",
"o.	c #D18145",
"p.	c #D18447",
"q.	c #D17641",
"r.	c #D16440",
"s.	c #BB6039",
"t.	c #AA5637",
"u.	c #994F38",
"v.	c #874838",
"w.	c #14270E",
"x.	c #33401D",
"y.	c #4C4A2F",
"z.	c #564F34",
"A.	c #653236",
"B.	c #78573A",
"C.	c #8B4B38",
"D.	c #AF6F39",
"E.	c #C78440",
"F.	c #D07941",
"G.	c #D18548",
"H.	c #CAA24A",
"I.	c #CC9C4A",
"J.	c #CC9B49",
"K.	c #CE8443",
"L.	c #CE7141",
"M.	c #C3653D",
"N.	c #B35C38",
"O.	c #8C5839",
"P.	c #7A4038",
"Q.	c #4A272C",
"R.	c #130F0C",
"S.	c #1E3613",
"T.	c #4A272D",
"U.	c #574C34",
"V.	c #7D743B",
"W.	c #8E5F38",
"X.	c #A16138",
"Y.	c #B08C3B",
"Z.	c #CC8542",
"`.	c #CC9A45",
" +	c #CA9E48",
".+	c #CC9848",
"++	c #CC9948",
"@+	c #CC8742",
"#+	c #C27D3E",
"$+	c #916C3B",
"%+	c #7F4338",
"&+	c #6B3E39",
"*+	c #4B272E",
"=+	c #33241C",
"-+	c #1A1210",
";+	c #223815",
">+	c #321C1B",
",+	c #594D34",
"'+	c #80643B",
")+	c #917039",
"!+	c #A37638",
"~+	c #B57B3C",
"{+	c #CD6140",
"]+	c #C69E42",
"^+	c #CB9E47",
"/+	c #CB9F48",
"(+	c #D08648",
"_+	c #CC8F43",
":+	c #CA6A3F",
"<+	c #B9763A",
"[+	c #946D3B",
"}+	c #804438",
"|+	c #6E5A3B",
"1+	c #582A32",
"2+	c #4D272E",
"3+	c #3A4422",
"4+	c #1E1412",
"5+	c #944D38",
"6+	c #A75738",
"7+	c #B67C3C",
"8+	c #C5A342",
"9+	c #CE9248",
"0+	c #CE6140",
"a+	c #B87A3A",
"b+	c #A95C37",
"c+	c #81613B",
"d+	c #70773E",
"e+	c #5A4234",
"f+	c #504031",
"g+	c #3F6327",
"h+	c #243617",
"i+	c #7E623B",
"j+	c #904C38",
"k+	c #A45237",
"l+	c #B37A3B",
"m+	c #CC8642",
"n+	c #CE8F45",
"o+	c #CB9E48",
"p+	c #CC9A48",
"q+	c #CC8842",
"r+	c #A27438",
"s+	c #6B4139",
"t+	c #34281D",
"u+	c #15270E",
"v+	c #653337",
"w+	c #794D39",
"x+	c #8C4B38",
"y+	c #A05038",
"z+	c #B06739",
"A+	c #C3613D",
"B+	c #CE6E41",
"C+	c #D17841",
"D+	c #D08547",
"E+	c #CE8643",
"F+	c #CF6E41",
"G+	c #C5613D",
"H+	c #B45C38",
"I+	c #A15B38",
"J+	c #8D5839",
"K+	c #602E34",
"L+	c #854738",
"M+	c #984E38",
"N+	c #BB5F39",
"O+	c #D16540",
"P+	c #D18246",
"Q+	c #D18448",
"R+	c #D17942",
"S+	c #D16640",
"T+	c #CB6140",
"U+	c #AB5737",
"V+	c #9A4F38",
"W+	c #884838",
"X+	c #753D38",
"Y+	c #623035",
"Z+	c #432528",
"`+	c #0C0A08",
" @	c #241715",
".@	c #6B3738",
"+@	c #D16940",
"@@	c #D16F40",
"#@	c #D17040",
"$@	c #D16A40",
"%@	c #D16240",
"&@	c #BE613A",
"*@	c #B15A38",
"=@	c #904D38",
"-@	c #6D3938",
";@	c #4E2730",
">@	c #392121",
",@	c #261815",
"'@	c #16100E",
")@	c #C4613D",
"!@	c #954E38",
"~@	c #643236",
"{@	c #1B1310",
"]@	c #B25B38",
"^@	c #B75E38",
"/@	c #B85E38",
"(@	c #B35B38",
"_@	c #944E38",
":@	c #794038",
"<@	c #3C2223",
"[@	c #17110E",
"}@	c #A75438",
"|@	c #5C2B33",
"1@	c #2F1B19",
"2@	c #1A1310",
"3@	c #221614",
"4@	c #914C38",
"5@	c #331D1C",
"6@	c #804338",
"7@	c #743C38",
"8@	c #281816",
"9@	c #663337",
"0@	c #592A32",
"a@	c #452529",
"b@	c #321D1C",
"c@	c #0E0B09",
"d@	c #241714",
"e@	c #0B0908",
"                                                                ",
"                                                                ",
"                                                                ",
"                                                                ",
"            . + @ # $ % & * = - ; - > & , ' ) ! ~ {             ",
"          { ] ^ / , * ( _ : < [ [ } : | ( * , 1 2 3 4           ",
"        . 5 6 ' & 7 8 9 0 a b c c b d e f g h & i j k l         ",
"      m n ^ ' o p q e b r s t u v t w x y z A B o C 2 D E       ",
"      F ! G & H I J K L M N O P Q O N R t r a 9 B o S T U       ",
"    V 3 ) , h q J W v N X Y Z ` ` Z  ...+.@.#.$.} %.&.*.=.{     ",
"    F -.;.* g e K v >.,.'.).!.~.~.{.].^./.(._.x :.: > <.[.}.    ",
"  |.1.2., %.f 3.4.N ,.5.{.6.7.8.9.0.6.a.b.Y c.d.e.f.g.&.) 5 h.  ",
"  { i.j.o k.l.x R ..^.{.m.n.o.p.p.o.q.r.a.s.t.u.v.:.g o 1 @ 4   ",
"  w.x.y.z.A.B.C.+.D.].E.F.p.G.G.H.I.J.K.L.M.N.>.O.P.A - Q.T R.  ",
"  S.[.T.U.9 V.W.X.Y.a.Z.`. +.+G.I.G.G.++@+#+'.Q $+%+&+h *+=+-+  ",
"  ;+>+*+,+f '+)+!+~+{+]+^+/+(+G.I.G.G.I._+:+<+..[+}+|+1+2+3+4+  ",
"  ;+>+*+,+f '+5+6+7+{+8+9+G.G.G.I.G.G.I._+0+a+b+[+c+d+e+f+g+h+  ",
"  S.^ T.U.9 i+j+k+l+a.m+n+o+G.G.I.G.G.p+q+~.'.r+$+%+s+h % t+-+  ",
"  u+x.y.z.v+w+x+y+z+A+B+C+D+9+G.H.I.I.E+F+G+H+I+J+b < - Q.T F   ",
"  l i./ o K+z L+M+t.N+a.O+C+P+Q+Q+P+R+S+T+5.U+V+W+X+Y+* Z+@ `+  ",
"  |. @# &.%..@y d.y+/.b.a.6.+@@@#@$@%@T+&@*@>.=@%+-@B ;@>@,@E   ",
"    '@T C > Y+z x @.(./.N+A+a.{+{+T+)@5. .k+!@L+X+~@= <.^ {@    ",
"    . k >@&.( < $.#.@.y+t.]@^@^.^./@(@t.>._@W+:@9 p ;@<@i.l     ",
"      [@-.Z+& B 9 $.x d.M+y+k+}@}@P c.M+j+W :@f |@o ' 1@2@      ",
"      h.3@2 C o B < z y L+x+j+5+5+4@L #.e.:.9 |@* <.5@5 V       ",
"        l k j C & ( Y+.@z :@y 6@6@y :@7@f.: %.o <.2.8@`+        ",
"          4 k 2 Z+&.> %.K+v+9 f .@[ 9@g 0@> &.a@b@8@c@          ",
"            l 3@-.>@C &.o = - h ( ; = o &.<.*.1@d@e@            ",
"                                                                ",
"                                                                ",
"                                                                ",
"                                                                "};
